<?xml version="1.0" standalone="no"?>
<!DOCTYPE svg PUBLIC "-//W3C//DTD SVG 20010904//EN"
 "http://www.w3.org/TR/2001/REC-SVG-20010904/DTD/svg10.dtd">
<svg version="1.0" xmlns="http://www.w3.org/2000/svg"
 width="500.000000pt" height="500.000000pt" viewBox="0 0 500.000000 500.000000"
 preserveAspectRatio="xMidYMid meet">

<g transform="translate(0.000000,500.000000) scale(0.100000,-0.100000)"
fill="#000000" stroke="none">
<path d="M2345 3529 c-27 -5 -72 -15 -100 -22 l-50 -13 0 -994 0 -995 75 -19
c108 -27 385 -28 485 0 l70 19 3 333 2 332 -75 0 -75 0 0 -269 0 -269 -22 -6
c-30 -8 -256 -8 -285 0 l-23 6 0 868 0 868 33 8 c49 11 253 7 277 -6 19 -10
20 -19 20 -275 l0 -265 75 0 75 0 0 333 0 334 -77 18 c-89 21 -329 29 -408 14z"/>
<path d="M2018 3416 c-105 -59 -150 -94 -236 -179 -185 -182 -287 -414 -299
-679 l-6 -128 242 0 241 0 0 -300 c0 -166 -4 -300 -9 -300 -12 0 -135 132
-157 169 l-18 31 -94 0 -94 0 22 -37 c80 -136 203 -271 319 -347 61 -40 163
-96 176 -96 3 0 5 232 5 515 l0 515 -236 0 -236 0 7 57 c14 114 73 263 147
372 36 52 147 171 160 171 4 0 8 -45 8 -100 l0 -100 75 0 75 0 0 224 c0 123 3
231 6 240 10 26 -17 19 -98 -28z"/>
<path d="M2940 2500 l0 -960 23 9 c33 13 124 68 192 116 78 55 188 171 248
262 46 69 117 210 117 232 0 7 -31 11 -84 11 l-84 0 -11 -32 c-31 -87 -217
-328 -242 -312 -11 7 -12 1354 -1 1354 5 0 36 -28 69 -63 67 -70 155 -198 173
-252 l12 -35 84 0 c53 0 84 4 84 11 0 21 -71 163 -117 232 -55 84 -155 192
-233 251 -63 48 -163 110 -203 125 l-27 11 0 -960z"/>
</g>
</svg>
